# xmcd
#
# Track frame offsets:
#	150
#	18037
#	39025
#	58185
#	78525
#	96750
#	111740
#	131250
#	148275
#	164050
#	185137
#	204150
#
# Disc length: 2877 seconds
#
# Revision: 4
# Processed by: cddbd v1.5.1PL0 Copyright (c) Steve Scherf et al.
# Submitted via: audiograbber 1.83.01
#
DISCID=a80b3b0c
DTITLE=Steinbäcker - Einmal im Leb'n
DYEAR=1990
DGENRE=AustroPop
TTITLE0=Die Sunn über'n Meer
TTITLE1=Net gebor'n für die Welt
TTITLE2=Die Zeit
TTITLE3=Einmal im Leb'n
TTITLE4=Du gehst jetzt nach Amerika
TTITLE5=Kein Traum mehr
TTITLE6=I laß' mir die Kraft net zerbrechen
TTITLE7=Irgendwie bei mir
TTITLE8=Soll i
TTITLE9=Blasser Engel
TTITLE10=Liebe is es net
TTITLE11=Bevor i geh
EXTD=
EXTT0=
EXTT1=
EXTT2=
EXTT3=
EXTT4=
EXTT5=
EXTT6=
EXTT7=
EXTT8=
EXTT9=
EXTT10=
EXTT11=
PLAYORDER=
